 <svg xmlns="http://www.w3.org/2000/svg" width="844.176" height="408.682" viewBox="0 0 844.176 408.682">
    <g id="Group_258" data-name="Group 258" transform="translate(6364.129 5117)">
      <g id="Group_75" data-name="Group 75" transform="translate(-6255.831 -5003.141)">
        <path id="Path_63" data-name="Path 63"
          d="M3933.606,1676.868c6.534,6.533,5.658,18,5.658,18s-11.469.876-18-5.659-5.657-18-5.657-18S3927.073,1670.333,3933.606,1676.868Z"
          transform="translate(-3915.564 -1671.17)" fill="rgba(255,255,255,0)" />
      </g>
      <g id="Group_76" data-name="Group 76" transform="translate(-6218.005 -5003.141)">
        <path id="Path_64" data-name="Path 64"
          d="M3978.179,1689.212c-6.535,6.534-18,5.659-18,5.659s-.876-11.469,5.658-18,18-5.659,18-5.659S3984.713,1682.678,3978.179,1689.212Z"
          transform="translate(-3960.137 -1671.17)" fill="rgba(255,255,255,0)" />
      </g>
      <g id="Group_77" data-name="Group 77" transform="translate(-5738.653 -5117)" opacity="0">
        <path id="Path_65" data-name="Path 65"
          d="M4530.092,1567.594a76.448,76.448,0,0,1-2.892-7.335,3.566,3.566,0,0,1,.847-3.733,29.335,29.335,0,0,1,29.227-7.063l2.873-2.55,3.495-3.93a11.9,11.9,0,0,1,17.8,15.814.036.036,0,0,1-.016.025l-1.812,2.033-1.694,1.9-2.738,2.4a29.331,29.331,0,0,1-3.116,29.813,3.715,3.715,0,0,1-3.728,1.3c-18.556-3.526-28.719-13.133-34.428-21.808"
          transform="translate(-4525.298 -1537.303)" fill="#0e0a48" />
        <path id="Path_66" data-name="Path 66"
          d="M4568.853,1597.75a6.118,6.118,0,0,1-1.137-.109c-15.695-2.983-27.649-10.567-35.528-22.542a1.7,1.7,0,1,1,2.835-1.867c7.356,11.179,18.567,18.27,33.327,21.074a2.06,2.06,0,0,0,2.048-.648,27.581,27.581,0,0,0,2.939-28.088,1.7,1.7,0,0,1,.419-1.987l2.659-2.335,3.367-3.779c.027-.036.056-.07.083-.1a10.205,10.205,0,0,0-15.259-13.556l-3.494,3.928a1.6,1.6,0,0,1-.142.14l-2.872,2.55a1.7,1.7,0,0,1-1.629.352,27.574,27.574,0,0,0-27.538,6.653,1.88,1.88,0,0,0-.434,1.959l.164.475c.6,1.686,1.407,4,2.666,6.711a1.7,1.7,0,1,1-3.079,1.428,74.961,74.961,0,0,1-2.787-7.014l-.166-.471a5.28,5.28,0,0,1,1.258-5.509,30.95,30.95,0,0,1,29.993-7.746l2.095-1.859,3.428-3.855a13.6,13.6,0,0,1,20.394,18c-.024.033-.051.065-.079.1h0l-3.5,3.935a1.885,1.885,0,0,1-.146.146l-1.806,1.585a30.973,30.973,0,0,1-3.809,30.374A5.266,5.266,0,0,1,4568.853,1597.75Z"
          transform="translate(-4524.996 -1537)" fill="#4d4d4d" />
      </g>
      <g id="Group_78" data-name="Group 78" transform="translate(-5896.246 -4944.888)" opacity="0">
        <path id="Path_67" data-name="Path 67" d="M4361.072,1739.813h62.481v14.655h-84.261v-14.655h11.819"
          transform="translate(-4339.292 -1739.813)" fill="#0e0a48" />
      </g>
      <g id="Group_79" data-name="Group 79" transform="translate(-6138.82 -5089.573)">
        <path id="Path_68" data-name="Path 68"
          d="M4256.939,1583.635l-2.746,103.334a12.313,12.313,0,0,1-12.314,12.313h-63.122a3.921,3.921,0,0,1-3.9-3.475l-6.879-46.65a3.918,3.918,0,0,0-3.894-3.476H4148.3a3.92,3.92,0,0,0-3.895,3.476l-6.881,46.65a3.918,3.918,0,0,1-3.893,3.475h-63.122a12.312,12.312,0,0,1-12.312-12.313l-2.749-103.334a12.315,12.315,0,0,1,12.315-12.314h176.866A12.312,12.312,0,0,1,4256.939,1583.635Z"
          transform="translate(-4053.749 -1569.623)" fill="#0e0a48" opacity="0" />
        <path id="Path_69" data-name="Path 69"
          d="M4241.577,1700.677h-63.122a5.613,5.613,0,0,1-5.58-4.981L4166,1649.1a2.236,2.236,0,0,0-2.213-2.026h-15.8a2.219,2.219,0,0,0-2.2,1.97l-6.889,46.706a5.6,5.6,0,0,1-5.573,4.925h-63.122a14.027,14.027,0,0,1-14.011-14.011l-2.747-103.29a14.037,14.037,0,0,1,14.011-14.057h176.866a14.028,14.028,0,0,1,14.012,14.012v.045l-2.748,103.333A14.016,14.016,0,0,1,4241.577,1700.677Zm-93.585-57h15.8a5.612,5.612,0,0,1,5.58,4.979l6.875,46.6a2.235,2.235,0,0,0,2.213,2.026h63.122a10.627,10.627,0,0,0,10.616-10.616l2.748-103.355a10.629,10.629,0,0,0-10.617-10.6H4067.458a10.631,10.631,0,0,0-10.618,10.618l2.748,103.289a10.639,10.639,0,0,0,10.617,10.662h63.122a2.221,2.221,0,0,0,2.207-1.971l6.889-46.706A5.6,5.6,0,0,1,4147.992,1643.682Zm108.646-60.35h0Z"
          transform="translate(-4053.447 -1569.32)" fill="#4d4d4d" />
      </g>
      <g id="Group_80" data-name="Group 80" transform="translate(-6233.778 -5027.318)">
        <path id="Path_70" data-name="Path 70"
          d="M3959.01,1659.41c0,9.24-8.73,16.731-8.73,16.731s-8.729-7.491-8.729-16.731,8.729-16.73,8.729-16.73S3959.01,1650.171,3959.01,1659.41Z"
          transform="translate(-3941.551 -1642.68)" fill="rgba(255,255,255,0)" />
      </g>
      <path id="Path_71" data-name="Path 71"
        d="M4567.752,1542.7s9.983,5.586,1.831,13.738c0,0,1.146,2.862,0,4.579-8.243,12.823-21.9,24.965-21.9,24.965s15.4,9.481,24.924,10.33c4.673-4.222,11.632-14.23,7.052-30.715,4.58-6.412,10.28-14.873,6.972-19.343s-6.513-8.243-10.863-7.273A23.84,23.84,0,0,0,4567.752,1542.7Z"
        transform="translate(-10267.084 -6654.276)" fill="#fff" opacity="0.22" />
      <g id="Group_84" data-name="Group 84" transform="translate(-5800.59 -4984.137)">
        <path id="Path_73" data-name="Path 73" d="M4481.709,1747.769h-21.98l-5.5-52.2H4487.2Z"
          transform="translate(-4452.348 -1693.866)" fill="#0e0a48" opacity="0" />
        <g id="Group_82" data-name="Group 82" transform="translate(1.427 1.698)" opacity="0.27">
          <path id="Path_72" data-name="Path 72" d="M4453.694,1695.564h10.074l13.738,52.2h-18.317Z"
            transform="translate(-4453.694 -1695.564)" fill="#fff" />
        </g>
        <path id="Path_74" data-name="Path 74"
          d="M4482.9,1749.163h-25.038l-5.851-55.6h36.742Zm-21.98-3.394h18.926l5.136-48.812h-29.2Z"
          transform="translate(-4452.012 -1693.563)" fill="#4d4d4d" />
      </g>
      <g id="Group_85" data-name="Group 85" transform="translate(-5738.653 -5117)">
        <path id="Path_75" data-name="Path 75"
          d="M4568.853,1597.75a6.118,6.118,0,0,1-1.137-.109c-15.695-2.983-27.649-10.567-35.528-22.542a1.7,1.7,0,1,1,2.835-1.867c7.356,11.179,18.567,18.27,33.327,21.074a2.06,2.06,0,0,0,2.048-.648,27.581,27.581,0,0,0,2.939-28.088,1.7,1.7,0,0,1,.419-1.987l2.659-2.335,3.367-3.779c.027-.036.056-.07.083-.1a10.205,10.205,0,0,0-15.259-13.556l-3.494,3.928a1.6,1.6,0,0,1-.142.14l-2.872,2.55a1.7,1.7,0,0,1-1.629.352,27.574,27.574,0,0,0-27.538,6.653,1.88,1.88,0,0,0-.434,1.959l.164.475c.6,1.686,1.407,4,2.666,6.711a1.7,1.7,0,1,1-3.079,1.428,74.961,74.961,0,0,1-2.787-7.014l-.166-.471a5.28,5.28,0,0,1,1.258-5.509,30.95,30.95,0,0,1,29.993-7.746l2.095-1.859,3.428-3.855a13.6,13.6,0,0,1,20.394,18c-.024.033-.051.065-.079.1h0l-3.5,3.935a1.885,1.885,0,0,1-.146.146l-1.806,1.585a30.973,30.973,0,0,1-3.809,30.374A5.266,5.266,0,0,1,4568.853,1597.75Z"
          transform="translate(-4524.996 -1537)" fill="#f5eee6" />
      </g>
      <g id="Group_86" data-name="Group 86" transform="translate(-6364.129 -4931.473)">
        <path id="Path_76" data-name="Path 76"
          d="M4630.428,1759.015H3789.645a1.7,1.7,0,0,1,0-3.394h840.783a1.7,1.7,0,0,1,0,3.394Z"
          transform="translate(-3787.949 -1755.621)" fill="#f5eee6" />
      </g>
      <g id="Group_87" data-name="Group 87" transform="translate(-6357.372 -4844.192)">
        <rect id="Rectangle_25" data-name="Rectangle 25" width="138.515" height="3.394"
          transform="translate(0 133.795) rotate(-75)" fill="#f5eee6" />
      </g>
      <g id="Group_88" data-name="Group 88" transform="translate(-6319.389 -4930.681)">
        <rect id="Rectangle_26" data-name="Rectangle 26" width="81.297" height="3.394"
          transform="translate(0 78.527) rotate(-75)" fill="#f5eee6" />
      </g>
      <g id="Group_89" data-name="Group 89" transform="translate(-6250.756 -4751.525)">
        <rect id="Rectangle_27" data-name="Rectangle 27" width="3.394" height="42.589"
          transform="translate(0 0.878) rotate(-15)" fill="#f5eee6" />
      </g>
      <g id="Group_90" data-name="Group 90" transform="translate(-6254.892 -4766.963)">
        <rect id="Rectangle_28" data-name="Rectangle 28" width="3.394" height="8.665"
          transform="translate(0 0.878) rotate(-15)" fill="#f5eee6" />
      </g>
      <g id="Group_91" data-name="Group 91" transform="translate(-6298.758 -4930.672)">
        <rect id="Rectangle_29" data-name="Rectangle 29" width="3.394" height="163.555"
          transform="translate(0 0.878) rotate(-15)" fill="#f5eee6" />
      </g>
      <g id="Group_92" data-name="Group 92" transform="translate(-5683.626 -5095.875)">
        <path id="Path_77" data-name="Path 77"
          d="M4597.946,1718.241a1.7,1.7,0,0,1-1.2-2.9l69.493-69.493a3.644,3.644,0,0,0,0-5.155l-75.9-75.9a1.7,1.7,0,0,1,2.4-2.4l75.9,75.905a7.039,7.039,0,0,1,0,9.955l-69.492,69.493A1.7,1.7,0,0,1,4597.946,1718.241Z"
          transform="translate(-4589.838 -1561.893)" fill="#f5eee6" />
      </g>
      <g id="Group_93" data-name="Group 93" transform="translate(-6306.574 -4957.122)" opacity="0.28">
        <path id="Path_78" data-name="Path 78" d="M3941.311,1717.149l20.095,33.88-26.79.008-5.786-27.474,4.673-6.165Z"
          transform="translate(-3865.83 -1725.149)" fill="#fff" />
      </g>
      <g id="Group_94" data-name="Group 94" transform="translate(-6256.055 -5003.148)">
        <path id="Path_79" data-name="Path 79" d="M3915.338,1671.16s-.844,11.068,5.46,17.374,17.374,5.46,17.374,5.46Z"
          transform="translate(-3915.3 -1671.16)" fill="#fff" opacity="0.19" />
      </g>
      <g id="Group_97" data-name="Group 97" transform="translate(-5800.59 -4984.137)">
        <g id="Group_96" data-name="Group 96">
          <path id="Path_81" data-name="Path 81"
            d="M4482.9,1749.163h-25.038l-5.851-55.6h36.742Zm-21.98-3.394h18.926l5.136-48.812h-29.2Z"
            transform="translate(-4452.012 -1693.563)" fill="#f5eee6" />
        </g>
      </g>
      <g id="Group_98" data-name="Group 98" transform="translate(-5896.246 -4944.888)" opacity="0.18">
        <path id="Path_82" data-name="Path 82" d="M4421.722,1754.468h-82.429v-14.655Z"
          transform="translate(-4339.292 -1739.813)" fill="#fff" />
      </g>
      <g id="Group_99" data-name="Group 99" transform="translate(-5897.943 -4946.585)">
        <path id="Path_83" data-name="Path 83"
          d="M4424.947,1755.862h-87.656v-18.049h13.519a1.7,1.7,0,1,1,0,3.394h-10.124v11.26h80.867v-11.26H4360.77a1.7,1.7,0,1,1,0-3.394h64.178Z"
          transform="translate(-4337.291 -1737.813)" fill="#f5eee6" />
      </g>
      <g id="Group_100" data-name="Group 100" transform="translate(-5876.878 -4946.585)">
        <path id="Path_84" data-name="Path 84"
          d="M4364.728,1741.207h-.917a1.7,1.7,0,1,1,0-3.394h.917a1.7,1.7,0,0,1,0,3.394Z"
          transform="translate(-4362.114 -1737.813)" fill="#f5eee6" />
      </g>
      <g id="Group_101" data-name="Group 101" transform="translate(-6233.472 -5026.881)">
        <path id="Path_85" data-name="Path 85"
          d="M3950.334,1643.194s-8.423,7.229-8.423,16.147,8.423,16.146,8.423,16.146Z"
          transform="translate(-3941.911 -1643.194)" fill="#fff" opacity="0.15" />
      </g>
      <g id="Group_102" data-name="Group 102" transform="translate(-5553.482 -4744.081)">
        <rect id="Rectangle_30" data-name="Rectangle 30" width="3.394" height="35.822"
          transform="translate(0 0.879) rotate(-15.001)" fill="#f5eee6" />
      </g>
      <g id="Group_104" data-name="Group 104" transform="translate(-5603.236 -4929.764)">
        <rect id="Rectangle_31" data-name="Rectangle 31" width="3.394" height="187.204"
          transform="translate(0 0.878) rotate(-15)" fill="#f5eee6" />
      </g>
      <g id="Group_105" data-name="Group 105" transform="translate(-5663.76 -4849.466)">
        <rect id="Rectangle_32" data-name="Rectangle 32" width="145.217" height="3.394"
          transform="translate(0 140.269) rotate(-75)" fill="#f5eee6" />
      </g>
      <g id="Group_106" data-name="Group 106" transform="translate(-5626.175 -4850.831)">
        <rect id="Rectangle_33" data-name="Rectangle 33" width="1.413" height="3.394"
          transform="translate(0 1.365) rotate(-75)" fill="#f5eee6" />
      </g>
      <g id="Group_107" data-name="Group 107" transform="translate(-5623.053 -4862.734)">
        <rect id="Rectangle_34" data-name="Rectangle 34" width="1.674" height="3.394"
          transform="translate(0 1.617) rotate(-75)" fill="#4d4d4d" />
      </g>
      <g id="Group_108" data-name="Group 108" transform="translate(-5623.88 -4929.48)">
        <rect id="Rectangle_35" data-name="Rectangle 35" width="73.97" height="3.394"
          transform="translate(0 71.449) rotate(-75)" fill="#f5eee6" />
      </g>
      <g id="Group_109" data-name="Group 109" transform="translate(-6217.59 -5002.726)">
        <path id="Path_87" data-name="Path 87" d="M3983.5,1671.7s-11.069-.845-17.374,5.461-5.46,17.374-5.46,17.374Z"
          transform="translate(-3960.626 -1671.659)" fill="#fff" opacity="0.34" />
      </g>
      <g id="Group_110" data-name="Group 110" transform="translate(-6072.576 -5012.664)" opacity="0.3">
        <path id="Path_88" data-name="Path 88"
          d="M4154.885,1659.948l-23.376,52.613,15.083.508,11.042-53.121H4178.7l9.752,53.121,12.227-.508-20.148-52.613Z"
          transform="translate(-4131.509 -1659.948)" fill="#fff" opacity="0.31" />
      </g>
      <g id="Group_111" data-name="Group 111" transform="translate(-6064.461 -4933.653)">
        <path id="Path_89" data-name="Path 89"
          d="M4195.543,1756.447H4142.77a1.7,1.7,0,1,1,0-3.395h52.773a1.7,1.7,0,0,1,0,3.395Z"
          transform="translate(-4141.071 -1753.052)" fill="#f5eee6" />
      </g>
      <g id="Group_112" data-name="Group 112" transform="translate(-6059.765 -5015.211)">
        <path id="Path_90" data-name="Path 90"
          d="M4187.854,1740.5h-35.115c-2.468,0-4.386-1.849-4.107-3.96l5.631-42.5,4.224-31.945a3.961,3.961,0,0,1,4.1-3.156H4178a3.963,3.963,0,0,1,4.106,3.156l4.225,31.945,5.627,42.5C4192.24,1738.654,4190.321,1740.5,4187.854,1740.5Z"
          transform="translate(-4146.907 -1657.249)" fill="#0e0a48" opacity="0" />
        <path id="Path_91" data-name="Path 91"
          d="M4187.549,1741.9h-35.113a6.048,6.048,0,0,1-4.579-2,4.862,4.862,0,0,1-1.211-3.884l9.853-74.441a5.653,5.653,0,0,1,5.789-4.63H4177.7a5.653,5.653,0,0,1,5.787,4.629l9.854,74.442a4.863,4.863,0,0,1-1.211,3.885A6.055,6.055,0,0,1,4187.549,1741.9Zm-25.262-81.558a2.311,2.311,0,0,0-2.424,1.681l-9.852,74.441a1.5,1.5,0,0,0,.4,1.2,2.7,2.7,0,0,0,2.026.839h35.113a2.7,2.7,0,0,0,2.026-.839,1.513,1.513,0,0,0,.4-1.2l-9.853-74.442a2.31,2.31,0,0,0-2.421-1.68Z"
          transform="translate(-4146.604 -1656.946)" fill="#f5eee6" />
      </g>
      <g id="Group_113" data-name="Group 113" transform="translate(-6138.82 -5089.573)">
        <path id="Path_92" data-name="Path 92"
          d="M4241.577,1700.677h-63.122a5.613,5.613,0,0,1-5.58-4.981L4166,1649.1a2.236,2.236,0,0,0-2.213-2.026h-15.8a2.219,2.219,0,0,0-2.2,1.97l-6.889,46.706a5.6,5.6,0,0,1-5.573,4.925h-63.122a14.027,14.027,0,0,1-14.011-14.011l-2.747-103.29a14.037,14.037,0,0,1,14.011-14.057h176.866a14.028,14.028,0,0,1,14.012,14.012v.045l-2.748,103.333A14.016,14.016,0,0,1,4241.577,1700.677Zm-93.585-57h15.8a5.612,5.612,0,0,1,5.58,4.979l6.875,46.6a2.235,2.235,0,0,0,2.213,2.026h63.122a10.627,10.627,0,0,0,10.616-10.616l2.748-103.355a10.629,10.629,0,0,0-10.617-10.6H4067.458a10.631,10.631,0,0,0-10.618,10.618l2.748,103.289a10.639,10.639,0,0,0,10.617,10.662h63.122a2.221,2.221,0,0,0,2.207-1.971l6.889-46.706A5.6,5.6,0,0,1,4147.992,1643.682Zm108.646-60.35h0Z"
          transform="translate(-4053.447 -1569.32)" fill="#f5eee6" />
      </g>
      <g id="Group_114" data-name="Group 114" transform="translate(-6017.295 -4972.735)">
        <path id="Path_93" data-name="Path 93" d="M4196.649,1707" transform="translate(-4196.649 -1706.999)"
          fill="#f0f0f0" />
      </g>
      <g id="Group_115" data-name="Group 115" transform="translate(-6246.276 -4961.962)">
        <path id="Path_94" data-name="Path 94"
          d="M3964.076,1753.118h-31.134l-5.934-27.447a8.077,8.077,0,0,1,1.025-5.979l2.886,1.785a4.694,4.694,0,0,0-.593,3.476l5.355,24.77h25.653l2.755-12.741,3.317.718Z"
          transform="translate(-3926.823 -1719.693)" fill="#f5eee6" />
      </g>
      <g id="Group_116" data-name="Group 116" transform="translate(-6241.337 -4965.819)">
        <path id="Path_95" data-name="Path 95"
          d="M3969.139,1733.08l-3.318-.717,2.2-10.158a3.024,3.024,0,0,0-2.955-3.662h-29.237a4.713,4.713,0,0,0-1.854.375l-1.33-3.123a8.061,8.061,0,0,1,3.184-.647h29.237a6.418,6.418,0,0,1,6.272,7.775Z"
          transform="translate(-3932.643 -1715.148)" fill="#f5eee6" />
      </g>
      <g id="Group_117" data-name="Group 117" transform="translate(-6235.05 -5028.996)">
        <path id="Path_96" data-name="Path 96"
          d="M3950.053,1677.52l-.829-.711c-.375-.322-9.173-7.984-9.173-17.7s8.8-17.375,9.173-17.7l.829-.711.829.711c.375.322,9.173,7.984,9.173,17.7s-8.8,17.376-9.173,17.7Zm0-33.391c-2.1,2.086-7.457,8.088-7.457,14.982,0,6.913,5.355,12.9,7.456,14.982,2.1-2.086,7.457-8.087,7.457-14.982C3957.509,1652.2,3952.154,1646.211,3950.053,1644.129Z"
          transform="translate(-3940.051 -1640.703)" fill="#f5eee6" />
      </g>
      <g id="Group_118" data-name="Group 118" transform="translate(-6219.282 -5004.417)">
        <path id="Path_97" data-name="Path 97"
          d="M3961.4,1695.958c-.888,0-1.45-.038-1.551-.046l-1.089-.083-.083-1.089c-.038-.492-.842-12.131,6.027-19s18.507-6.063,19-6.028l1.089.083.083,1.09c.037.492.842,12.131-6.028,19C3973.382,1695.356,3964.884,1695.958,3961.4,1695.958Zm-.217-2.553c2.924.011,10.991-.444,15.866-5.321s5.329-12.905,5.32-15.865h-.084c-3.025,0-10.951.491-15.781,5.321C3961.619,1682.428,3961.172,1690.448,3961.186,1693.405Z"
          transform="translate(-3958.633 -1669.666)" fill="#f5eee6" />
      </g>
      <g id="Group_119" data-name="Group 119" transform="translate(-6257.108 -5004.417)">
        <path id="Path_98" data-name="Path 98"
          d="M3937.582,1695.958c-3.48,0-11.978-.6-17.448-6.073-6.869-6.869-6.064-18.508-6.027-19l.084-1.09,1.088-.083c.493-.035,12.131-.841,19,6.028s6.065,18.508,6.028,19l-.084,1.088-1.089.084C3939.032,1695.92,3938.47,1695.958,3937.582,1695.958Zm1.455-1.316h0Zm-22.424-22.424c-.009,2.961.446,10.992,5.322,15.866,4.889,4.889,12.9,5.306,15.865,5.323.009-2.959-.444-10.992-5.321-15.868-4.829-4.828-12.756-5.321-15.782-5.321Z"
          transform="translate(-3914.059 -1669.666)" fill="#f5eee6" />
      </g>
      <g id="Group_120" data-name="Group 120" transform="translate(-6226.322 -5016.327)">
        <rect id="Rectangle_36" data-name="Rectangle 36" width="2.546" height="52.205" fill="#f5eee6" />
      </g>
      <g id="Group_121" data-name="Group 121" transform="translate(-6247.475 -4995.704)">
        <path id="Path_99" data-name="Path 99"
          d="M3947.758,1705.151l-22.348-22.506,1.808-1.794,20.546,20.693,21.612-21.613,1.8,1.8Z"
          transform="translate(-3925.41 -1679.932)" fill="#f5eee6" />
      </g>
      <g id="Group_122" data-name="Group 122" transform="translate(-5698.872 -4929.776)">
        <path id="Path_100" data-name="Path 100" d="M4571.872,1757.621" transform="translate(-4571.872 -1757.621)"
          fill="none" stroke="#4d4d4d" stroke-linecap="round" stroke-miterlimit="10" stroke-width="4" />
      </g>
      <g id="Group_123" data-name="Group 123" transform="translate(-5651.247 -4929.776)">
        <path id="Path_101" data-name="Path 101" d="M4627.993,1757.621" transform="translate(-4627.993 -1757.621)"
          fill="none" stroke="#4d4d4d" stroke-linecap="round" stroke-miterlimit="10" stroke-width="4" />
      </g>
      <g id="Group_124" data-name="Group 124" transform="translate(-5700.112 -4942.464)">
        <path id="Path_103" data-name="Path 103"
          d="M4620.975,1757.078l-36.067-.481h-14.5v-1.7c0-6.946,9.9-11.967,24.08-12.212.274-.017.629-.018.974-.018.842,0,1.686.019,2.5.056a47.822,47.822,0,0,1,7.38.895,1.7,1.7,0,1,1-.674,3.326,44.514,44.514,0,0,0-6.86-.83c-.8-.038-1.637-.062-2.44-.053-.252,0-.507,0-.756.015-10.268.178-18.543,3.184-20.415,7.123h10.728l32.214.43c-.822-1.646-2.785-3.241-5.658-4.548a1.7,1.7,0,1,1,1.405-3.089c5.211,2.37,8.082,5.7,8.082,9.363Z"
          transform="translate(-4570.411 -1742.67)" fill="#f5eee6" />
      </g>
    </g>
  </svg>
