<svg width="251" height="251" viewBox="0 0 251 251" fill="none" xmlns="http://www.w3.org/2000/svg">
<path d="M221.854 97.3582L221.721 96.9063L221.262 97.013C197.193 102.604 172.003 100.888 148.916 92.083C125.828 83.2782 105.892 67.7854 91.6587 47.587L91.1334 46.8415L90.7874 47.6853C78.5861 77.4416 55.3038 101.471 25.9218 114.543L25.6794 114.651L25.6328 114.912C25 118.456 25 122.118 25 125.727V125.75C25 181.151 70.0989 226.25 125.5 226.25C180.901 226.25 226 181.151 226 125.75C226 115.824 224.492 106.277 221.854 97.3582ZM147.875 138.25C147.875 134.239 149.469 130.391 152.305 127.555C155.141 124.719 158.989 123.125 163 123.125C167.011 123.125 170.859 124.719 173.695 127.555C176.531 130.391 178.125 134.239 178.125 138.25C178.125 142.261 176.531 146.109 173.695 148.945C170.859 151.781 167.011 153.375 163 153.375C158.989 153.375 155.141 151.781 152.305 148.945C149.469 146.109 147.875 142.261 147.875 138.25ZM250 125.75V250.25H1V125.75C1 57.2761 57.0261 1.25 125.5 1.25C193.974 1.25 250 57.2761 250 125.75ZM98.695 148.945C95.8585 151.781 92.0114 153.375 88 153.375C83.9886 153.375 80.1415 151.781 77.305 148.945C74.4685 146.109 72.875 142.261 72.875 138.25C72.875 134.239 74.4685 130.391 77.305 127.555C80.1415 124.719 83.9886 123.125 88 123.125C92.0114 123.125 95.8585 124.719 98.695 127.555C101.531 130.391 103.125 134.239 103.125 138.25C103.125 142.261 101.531 146.109 98.695 148.945Z" fill="black" stroke="black"/>
</svg>
